<?xml version="1.0" encoding="UTF-8"?>
<svg version="1.1" xmlns="http://www.w3.org/2000/svg" width="358" height="109">
<path d="M0 0 C118.14 0 236.28 0 358 0 C358 35.97 358 71.94 358 109 C239.86 109 121.72 109 0 109 C0 73.03 0 37.06 0 0 Z " fill="#010204" transform="translate(0,0)"/>
<path d="M0 0 C0.16235047 9.80529497 0.2866495 19.61026912 0.3626852 29.41663551 C0.39918343 33.97046073 0.44866893 38.52336499 0.52807617 43.07666016 C0.60426151 47.47283315 0.64601595 51.86812173 0.6641407 56.26490402 C0.67705271 57.94032082 0.70226859 59.61569037 0.7401104 61.29072952 C1.02696298 74.51677312 1.02696298 74.51677312 -1.58091736 78.28329468 C-3.5 79.875 -3.5 79.875 -5.42602539 80.97900391 C-5.94543701 81.31593262 -6.46484863 81.65286133 -7 82 C-7.83616146 85.1827775 -7.83616146 85.1827775 -7.4375 88.375 C-7.37433594 89.43460937 -7.31117187 90.49421875 -7.24609375 91.5859375 C-7.16488281 92.38257812 -7.08367188 93.17921875 -7 94 C-7.99 94 -8.98 94 -10 94 C-10 94.66 -10 95.32 -10 96 C-9.01 96 -8.02 96 -7 96 C-7 96.66 -7 97.32 -7 98 C-8.65 97.67 -10.3 97.34 -12 97 C-10.81093394 81.07061503 -10.81093394 81.07061503 -4 75 C-10.13682138 75.89578874 -14.05040671 76.85356026 -18 82 C-19.319018 84.66533035 -19.319018 84.66533035 -20 87 C-20.99 86.505 -20.99 86.505 -22 86 C-21.01 84.515 -21.01 84.515 -20 83 C-20.99 83 -21.98 83 -23 83 C-23.495 84.485 -23.495 84.485 -24 86 C-23.8125 83.625 -23.8125 83.625 -23 81 C-21.34015202 80.31653318 -19.67163195 79.65411685 -18 79 C-15.52033294 76.80269668 -13.25249706 74.4277634 -11 72 C-11.99 71.67 -12.98 71.34 -14 71 C-14 69 -14 69 -11.875 66.4375 C-8.74482626 63.78365704 -7.02545534 63.28084572 -3 63 C-2.67 60.69 -2.34 58.38 -2 56 C-6.38981641 57.72149663 -9.68240895 59.55004076 -12.96875 62.9375 C-13.49960205 63.47729492 -14.0304541 64.01708984 -14.57739258 64.57324219 C-15.627163 65.66646785 -16.64990561 66.78650558 -17.6394043 67.93457031 C-19.16796875 69.515625 -19.16796875 69.515625 -23 72 C-27.29 72 -31.58 72 -36 72 C-36 57.48 -36 42.96 -36 28 C-39.63 28.33 -43.26 28.66 -47 29 C-47.33 27.35 -47.66 25.7 -48 24 C-47.67 23.67 -47.34 23.34 -47 23 C-44.97591245 23.09002398 -42.95455713 23.24641038 -40.9375 23.4375 C-39.83277344 23.53933594 -38.72804688 23.64117188 -37.58984375 23.74609375 C-36.73519531 23.82988281 -35.88054688 23.91367187 -35 24 C-34.67 22.35 -34.34 20.7 -34 19 C-34.98395752 19.0611499 -34.98395752 19.0611499 -35.98779297 19.12353516 C-38.94966036 19.30153073 -41.91219159 19.46345902 -44.875 19.625 C-45.90753906 19.68945312 -46.94007812 19.75390625 -48.00390625 19.8203125 C-48.99003906 19.871875 -49.97617187 19.9234375 -50.9921875 19.9765625 C-51.90339355 20.02893066 -52.81459961 20.08129883 -53.75341797 20.13525391 C-56 20 -56 20 -58 18 C-57.625 15.875 -57.625 15.875 -57 14 C-53.79312217 13.03633838 -50.98791052 12.92043416 -47.6484375 13.0078125 C-46.63265625 13.02457031 -45.616875 13.04132812 -44.5703125 13.05859375 C-42.43211907 13.10303053 -40.29407249 13.15517152 -38.15625 13.21484375 C-37.14304687 13.22902344 -36.12984375 13.24320313 -35.0859375 13.2578125 C-34.1582959 13.2798877 -33.2306543 13.30196289 -32.27490234 13.32470703 C-31.52418457 13.21755371 -30.7734668 13.11040039 -30 13 C-29.34 12.01 -28.68 11.02 -28 10 C-39.22 10 -50.44 10 -62 10 C-62 7.69 -62 5.38 -62 3 C-61.01 3.33 -60.02 3.66 -59 4 C-56.21705207 4.1330632 -53.4600043 4.21226777 -50.67578125 4.23828125 C-49.85554977 4.246353 -49.0353183 4.25442474 -48.19023132 4.26274109 C-46.45277002 4.27656868 -44.71528171 4.28729676 -42.9777832 4.29516602 C-41.20979801 4.30666432 -39.44184693 4.32708205 -37.67407227 4.35668945 C-35.11190331 4.39959602 -32.55076598 4.41556841 -29.98828125 4.42578125 C-28.817528 4.45204338 -28.817528 4.45204338 -27.62312317 4.47883606 C-23.51562694 4.46282442 -20.80706602 4.08086498 -17.25073242 1.97338867 C-11.88055211 -1.09342836 -5.9922093 -0.32884075 0 0 Z " fill="#164181" transform="translate(62,7)"/>
<path d="M0 0 C1.05904289 0.00212242 1.05904289 0.00212242 2.13948059 0.00428772 C4.39120751 0.00987861 6.64283446 0.02242937 8.89453125 0.03515625 C10.4225246 0.04017243 11.95051952 0.04473513 13.47851562 0.04882812 C17.2213926 0.05984505 20.96419498 0.07710338 24.70703125 0.09765625 C23.58081055 2.56713867 23.58081055 2.56713867 21.70703125 5.09765625 C18.97973633 5.6652832 18.97973633 5.6652832 15.7265625 5.5859375 C14.56318359 5.56982422 13.39980469 5.55371094 12.20117188 5.53710938 C10.98623047 5.49521484 9.77128906 5.45332031 8.51953125 5.41015625 C7.29298828 5.38759766 6.06644531 5.36503906 4.80273438 5.34179688 C1.76961566 5.28278678 -1.26107097 5.20050217 -4.29296875 5.09765625 C-4.62296875 6.41765625 -4.95296875 7.73765625 -5.29296875 9.09765625 C-0.52203919 10.33168487 4.13172571 10.21030737 9.01953125 10.16015625 C9.85548828 10.15564453 10.69144531 10.15113281 11.55273438 10.14648438 C13.60419774 10.13476173 15.65562398 10.11682828 17.70703125 10.09765625 C17.37703125 11.74765625 17.04703125 13.39765625 16.70703125 15.09765625 C12.74703125 15.09765625 8.78703125 15.09765625 4.70703125 15.09765625 C4.70703125 16.41765625 4.70703125 17.73765625 4.70703125 19.09765625 C8.33703125 19.09765625 11.96703125 19.09765625 15.70703125 19.09765625 C15.71114014 20.48364014 15.71524902 21.86962402 15.71948242 23.29760742 C15.74144158 28.49588979 15.79590338 33.69343317 15.85961914 38.89135742 C15.8826537 41.13054257 15.89716029 43.36983382 15.90258789 45.60913086 C15.75905454 66.85642545 15.75905454 66.85642545 25.70703125 85.09765625 C28.18205723 86.86465222 28.18205723 86.86465222 30.83203125 88.28515625 C33.48490036 89.77690312 35.55118581 90.94181081 37.70703125 93.09765625 C21.86703125 93.09765625 6.02703125 93.09765625 -10.29296875 93.09765625 C-10.29296875 62.73765625 -10.29296875 32.37765625 -10.29296875 1.09765625 C-6.78672445 -0.07109185 -3.64518215 -0.02748642 0 0 Z " fill="#010101" transform="translate(10.29296875,15.90234375)"/>
<path d="M0 0 C1.65 0 3.3 0 5 0 C5.66 2.31 6.32 4.62 7 7 C10.98683713 7.80941599 10.98683713 7.80941599 15 8 C17.52590848 6.22845348 17.52590848 6.22845348 19 4 C24.3623599 5.34058998 29.4736611 7.63361701 33 12 C33.19844387 14.48917635 32.83772682 16.50238112 32.3359375 18.94140625 C31.8073144 21.12235717 31.8073144 21.12235717 32.9375 23.5625 C35.11280747 25.39702692 35.11280747 25.39702692 38.875 24.75 C40.99609375 24.63671875 40.99609375 24.63671875 43 25 C47.30559644 29.09505382 48.64080805 34.25292874 49 40 C48.195625 40.28875 47.39125 40.5775 46.5625 40.875 C43.4648498 43.44378309 43.54951905 44.30950809 43.1875 48.1875 C43.1026414 49.79063941 43.03312469 51.39495804 43 53 C43.78375 53.144375 44.5675 53.28875 45.375 53.4375 C48 54 48 54 50 55 C49.6083965 60.95507399 48.62875405 65.62819824 46 71 C43.03 71 40.06 71 37 71 C36.79375 72.44375 36.5875 73.8875 36.375 75.375 C36.25898437 76.18710938 36.14296875 76.99921875 36.0234375 77.8359375 C36.01570313 78.55007812 36.00796875 79.26421875 36 80 C36.99 80.99 36.99 80.99 38 82 C37.72431284 85.69880276 35.93667208 87.41368564 33.25 89.8125 C32.23679687 90.75029297 32.23679687 90.75029297 31.203125 91.70703125 C29 93 29 93 26.35546875 92.77734375 C24 92 24 92 22.0625 90.75 C19.83498853 89.71490675 19.83498853 89.71490675 16.8125 90.875 C13.8947617 92.64680131 13.8947617 92.64680131 13.39453125 94.98828125 C13.0597626 97.44945592 13.0597626 97.44945592 13 101 C6.565 101.495 6.565 101.495 0 102 C0 95.73 0 89.46 0 83 C2.26875 82.525625 4.5375 82.05125 6.875 81.5625 C14.61270187 79.65726628 19.94075167 76.30894314 25 70 C30.13017044 61.41313718 31.50388567 51.83996193 29.3515625 42.05078125 C26.7887522 34.19806763 22.63792642 27.71452546 15.25 23.6875 C10.35565906 21.51973088 5.17952181 20.29488045 0 19 C0 12.73 0 6.46 0 0 Z " fill="#1392C4" transform="translate(65,7)"/>
<path d="M0 0 C0.04241723 2.33294775 0.04092937 4.66702567 0 7 C-1 8 -1 8 -4.0625 8.0625 C-5.031875 8.041875 -6.00125 8.02125 -7 8 C-7.268125 8.639375 -7.53625 9.27875 -7.8125 9.9375 C-9 12 -9 12 -12 13 C-12 13.66 -12 14.32 -12 15 C-9.525 15.495 -9.525 15.495 -7 16 C-7.721875 16.556875 -8.44375 17.11375 -9.1875 17.6875 C-12.04834845 19.95405207 -12.04834845 19.95405207 -14.5625 22.625 C-16.70218264 24.70981899 -18.27083122 25.88811642 -21 27 C-20.01 27 -19.02 27 -18 27 C-18 27.99 -18 28.98 -18 30 C-17.773125 29.278125 -17.54625 28.55625 -17.3125 27.8125 C-15.03427 22.93057856 -12.35541353 20.50540844 -7.3125 18.625 C-4 18 -4 18 -2 19 C-2.97291258 21.17034345 -3.7005479 22.74702774 -5.53515625 24.296875 C-7.55135121 26.64103767 -7.46751212 28.38306408 -7.625 31.4375 C-7.8149343 34.7613502 -8.07572669 37.79534746 -9 41 C-7.68 41.33 -6.36 41.66 -5 42 C-5 41.34 -5 40.68 -5 40 C-5.99 40 -6.98 40 -8 40 C-8 39.34 -8 38.68 -8 38 C-7.01 37.505 -7.01 37.505 -6 37 C-6.0928125 36.27554688 -6.185625 35.55109375 -6.28125 34.8046875 C-6.3534375 33.83789062 -6.425625 32.87109375 -6.5 31.875 C-6.5928125 30.92367187 -6.685625 29.97234375 -6.78125 28.9921875 C-6 26 -6 26 2 20 C2 28.58 2 37.16 2 46 C-7.29715306 46.45131811 -13.45502564 46.6119644 -21 41 C-22.0725 40.278125 -23.145 39.55625 -24.25 38.8125 C-29.97293314 32.9595002 -34 24.21406707 -34 16 C-32.7315625 16.0309375 -32.7315625 16.0309375 -31.4375 16.0625 C-25.2623444 15.95022444 -20.99439639 15.8460407 -16.5625 11.25 C-15.36281032 9.84364109 -14.17437492 8.42756584 -13 7 C-9.30280676 3.4612579 -5.36373782 0 0 0 Z " fill="#131E58" transform="translate(60,63)"/>
<path d="M0 0 C19.34809384 -0.71132698 19.34809384 -0.71132698 24.5859375 3.59375 C25.05257812 4.0578125 25.51921875 4.521875 26 5 C27.2375 6.0828125 27.2375 6.0828125 28.5 7.1875 C30.76485833 11.43410936 30.74046538 15.29275582 30 20 C27.63470017 24.91254581 24.78867099 27.46670754 20 30 C16.52035505 30.47138934 13.12789431 30.3789129 9.625 30.25 C6.44875 30.1675 3.2725 30.085 0 30 C0 20.1 0 10.2 0 0 Z " fill="#14205B" transform="translate(131,41)"/>
<path d="M0 0 C3.17625 -0.0825 6.3525 -0.165 9.625 -0.25 C10.6145166 -0.28641602 11.6040332 -0.32283203 12.62353516 -0.36035156 C18.35239873 -0.43215054 21.75222234 0.00291085 26 4 C26.9327738 6.94267925 26.40640271 8.85037903 26 12 C25.34 12.66 24.68 13.32 24 14 C24.66 14.515625 25.32 15.03125 26 15.5625 C28 18 28 18 28.5 21.5 C28 25 28 25 26.1875 27.375 C22.82777813 29.87079339 20.17259258 30.12225814 16.11328125 30.09765625 C15.26805908 30.09515869 14.42283691 30.09266113 13.55200195 30.09008789 C12.48296631 30.08098389 11.41393066 30.07187988 10.3125 30.0625 C5.2078125 30.0315625 5.2078125 30.0315625 0 30 C0 20.1 0 10.2 0 0 Z " fill="#10AFDB" transform="translate(279,41)"/>
<path d="M0 0 C2.05078125 0.44140625 2.05078125 0.44140625 5.05078125 2.44140625 C5.38078125 1.78140625 5.71078125 1.12140625 6.05078125 0.44140625 C8.03078125 0.44140625 10.01078125 0.44140625 12.05078125 0.44140625 C12.1962567 4.50352837 12.28491351 8.56497912 12.36328125 12.62890625 C12.40517578 13.77939453 12.44707031 14.92988281 12.49023438 16.11523438 C12.61149891 24.48248698 12.61149891 24.48248698 10.95068359 27.32275391 C9.59375 28.6796875 9.59375 28.6796875 7.05078125 30.44140625 C6.72078125 30.77140625 6.39078125 31.10140625 6.05078125 31.44140625 C3.76172045 31.56727532 1.46827007 31.61718596 -0.82421875 31.62890625 C-2.07976562 31.64308594 -3.3353125 31.65726563 -4.62890625 31.671875 C-7.94921875 31.44140625 -7.94921875 31.44140625 -10.94921875 29.44140625 C-10.61921875 27.79140625 -10.28921875 26.14140625 -9.94921875 24.44140625 C-9.26859375 24.60640625 -8.58796875 24.77140625 -7.88671875 24.94140625 C-4.4091671 25.53332994 -1.46779529 25.8323592 2.05078125 25.44140625 C4.05942484 23.06870885 4.05942484 23.06870885 5.05078125 20.44140625 C4.39078125 20.77140625 3.73078125 21.10140625 3.05078125 21.44140625 C-0.66148517 21.8538803 -4.24423658 21.94563459 -7.94921875 21.44140625 C-11.307734 18.4027496 -12.77507465 15.7101704 -13.38671875 11.25390625 C-12.88167377 6.85280004 -11.85835243 4.93390297 -8.87109375 1.76171875 C-5.94362314 -0.24942976 -3.46594486 -0.18556872 0 0 Z " fill="#14225E" transform="translate(189.94921875,47.55859375)"/>
<path d="M0 0 C0.99 0 1.98 0 3 0 C3 2.97 3 5.94 3 9 C3.66 9 4.32 9 5 9 C5 6.03 5 3.06 5 0 C5.99 0 6.98 0 8 0 C8 2.97 8 5.94 8 9 C8.66 9 9.32 9 10 9 C9.67 7.35 9.34 5.7 9 4 C10.32 4 11.64 4 13 4 C13 5.65 13 7.3 13 9 C12.34 9 11.68 9 11 9 C11 9.66 11 10.32 11 11 C11.598125 10.67 12.19625 10.34 12.8125 10 C15 9 15 9 18 9 C18 9.99 18 10.98 18 12 C19.32 12.33 20.64 12.66 22 13 C22 13.99 22 14.98 22 16 C19.69 16 17.38 16 15 16 C14.67 16.99 14.34 17.98 14 19 C17.3 19 20.6 19 24 19 C24.14285714 27.57142857 24.14285714 27.57142857 23 31 C20.36 31 17.72 31 15 31 C14.505 32.485 14.505 32.485 14 34 C15.32 34 16.64 34 18 34 C18 34.99 18 35.98 18 37 C16.515 37.495 16.515 37.495 15 38 C14.67 38.99 14.34 39.98 14 41 C12.68 41 11.36 41 10 41 C10 39.35 10 37.7 10 36 C6.7 36 3.4 36 0 36 C-0.42311733 32.5445418 -0.71687351 30.00280596 1.37109375 27.08203125 C2.47728368 25.88387172 3.61494523 24.71384001 4.78515625 23.578125 C5.18605469 23.05734375 5.58695312 22.5365625 6 22 C5.67 21.01 5.34 20.02 5 19 C3.35 18.67 1.7 18.34 0 18 C0 12.06 0 6.12 0 0 Z " fill="#13A8D6" transform="translate(65,35)"/>
<path d="M0 0 C1.48831242 0.00667405 2.97660807 0.01863442 4.46484375 0.03515625 C5.22345703 0.03966797 5.98207031 0.04417969 6.76367188 0.04882812 C8.64326246 0.06064945 10.52281274 0.07858547 12.40234375 0.09765625 C12.40234375 0.75765625 12.40234375 1.41765625 12.40234375 2.09765625 C11.08234375 2.42765625 9.76234375 2.75765625 8.40234375 3.09765625 C9.04171875 3.20078125 9.68109375 3.30390625 10.33984375 3.41015625 C11.02046875 3.63703125 11.70109375 3.86390625 12.40234375 4.09765625 C14.06094745 9.07346734 13.79629335 14.19895732 13.90234375 19.41015625 C13.95648438 20.53873047 14.010625 21.66730469 14.06640625 22.83007812 C14.20319851 31.13043677 14.20319851 31.13043677 11.82397461 34.00390625 C10.56809369 34.97459854 9.28489113 35.91120807 7.97412109 36.80639648 C6.05016287 38.11338252 6.05016287 38.11338252 5.71875 41.30859375 C5.79996094 42.35273437 5.88117187 43.396875 5.96484375 44.47265625 C6.02800781 45.53226563 6.09117188 46.591875 6.15625 47.68359375 C6.27806641 48.87855469 6.27806641 48.87855469 6.40234375 50.09765625 C5.41234375 50.09765625 4.42234375 50.09765625 3.40234375 50.09765625 C3.40234375 50.75765625 3.40234375 51.41765625 3.40234375 52.09765625 C4.39234375 52.09765625 5.38234375 52.09765625 6.40234375 52.09765625 C6.40234375 52.75765625 6.40234375 53.41765625 6.40234375 54.09765625 C4.75234375 53.76765625 3.10234375 53.43765625 1.40234375 53.09765625 C2.59140981 37.16827128 2.59140981 37.16827128 9.40234375 31.09765625 C3.26552237 31.99344499 -0.64806296 32.95121651 -4.59765625 38.09765625 C-5.91667425 40.7629866 -5.91667425 40.7629866 -6.59765625 43.09765625 C-7.25765625 42.76765625 -7.91765625 42.43765625 -8.59765625 42.09765625 C-7.93765625 41.10765625 -7.27765625 40.11765625 -6.59765625 39.09765625 C-7.58765625 39.09765625 -8.57765625 39.09765625 -9.59765625 39.09765625 C-9.92765625 40.08765625 -10.25765625 41.07765625 -10.59765625 42.09765625 C-10.41015625 39.72265625 -10.41015625 39.72265625 -9.59765625 37.09765625 C-7.93780827 36.41418943 -6.2692882 35.7517731 -4.59765625 35.09765625 C-2.11798919 32.90035293 0.14984669 30.52541965 2.40234375 28.09765625 C1.41234375 27.76765625 0.42234375 27.43765625 -0.59765625 27.09765625 C-0.59765625 25.09765625 -0.59765625 25.09765625 1.52734375 22.53515625 C4.65751749 19.88131329 6.37688841 19.37850197 10.40234375 19.09765625 C10.73234375 16.78765625 11.06234375 14.47765625 11.40234375 12.09765625 C6.1324804 14.16426933 2.73725801 16.65562493 -1.15283203 20.67382812 C-8.08289443 27.78009612 -8.08289443 27.78009612 -13.32421875 28.87890625 C-16.50194973 28.85121361 -19.47098692 28.65032448 -22.59765625 28.09765625 C-22.59765625 27.43765625 -22.59765625 26.77765625 -22.59765625 26.09765625 C-21.705625 26.071875 -20.81359375 26.04609375 -19.89453125 26.01953125 C-18.7240625 25.9628125 -17.55359375 25.90609375 -16.34765625 25.84765625 C-14.60742188 25.77804688 -14.60742188 25.77804688 -12.83203125 25.70703125 C-9.07568744 24.9993143 -7.91446992 24.07253201 -5.59765625 21.09765625 C-3.9548699 17.58806723 -3.33305653 15.96705534 -4.47265625 12.22265625 C-4.84390625 11.52140625 -5.21515625 10.82015625 -5.59765625 10.09765625 C-4.81390625 9.97390625 -4.03015625 9.85015625 -3.22265625 9.72265625 C-0.45707803 9.30647632 -0.45707803 9.30647632 1.40234375 7.09765625 C-0.24765625 6.43765625 -1.89765625 5.77765625 -3.59765625 5.09765625 C-3.78328125 5.73703125 -3.96890625 6.37640625 -4.16015625 7.03515625 C-5.59765625 9.09765625 -5.59765625 9.09765625 -8.97265625 9.84765625 C-11.50966252 10.0226222 -14.05462383 10.09765625 -16.59765625 10.09765625 C-15.60765625 9.76765625 -14.61765625 9.43765625 -13.59765625 9.09765625 C-13.59765625 8.43765625 -13.59765625 7.77765625 -13.59765625 7.09765625 C-14.58765625 7.09765625 -15.57765625 7.09765625 -16.59765625 7.09765625 C-16.59765625 6.43765625 -16.59765625 5.77765625 -16.59765625 5.09765625 C-14.28765625 5.42765625 -11.97765625 5.75765625 -9.59765625 6.09765625 C-9.59765625 5.43765625 -9.59765625 4.77765625 -9.59765625 4.09765625 C-7.96133733 3.04873387 -6.29279762 2.04858922 -4.59765625 1.09765625 C-3.59765625 0.09765625 -3.59765625 0.09765625 0 0 Z " fill="#154277" transform="translate(48.59765625,50.90234375)"/>
<path d="M0 0 C3.91075925 1.98968453 5.57689098 3.36533646 8 7 C8.48990241 12.19296559 7.95682924 15.66331712 5 20 C0.33760754 23.33028033 -4.43844993 23.91531772 -10 23 C-13.8026029 20.9949912 -15.61790841 19.57313738 -18 16 C-18.4775733 11.14467144 -18.51341394 8.95601216 -16.1875 4.625 C-11.53285533 -0.96057361 -6.84315397 -0.81140254 0 0 Z " fill="#13B0DC" transform="translate(328,48)"/>
<path d="M0 0 C3.07365786 1.80803404 4.43019732 2.86039464 6 6 C6.07194869 8.88370333 6.09291708 11.74239664 6.0625 14.625 C6.05798828 15.42679688 6.05347656 16.22859375 6.04882812 17.0546875 C6.03703168 19.03649006 6.01909605 21.01825433 6 23 C2.66666667 23 -0.66666667 23 -4 23 C-5.9490625 23.12375 -5.9490625 23.12375 -7.9375 23.25 C-10.98145285 23.23878839 -11.85078395 23.09699043 -14.5 21.375 C-16.43204232 18.31593299 -16.52979878 16.5572204 -16 13 C-14.14657225 10.44050454 -13.06243607 10.02081202 -10 9 C-8.60560336 8.93334624 -7.20830125 8.91461801 -5.8125 8.9375 C-3.9253125 8.9684375 -3.9253125 8.9684375 -2 9 C-2.33 8.34 -2.66 7.68 -3 7 C-6.3 7 -9.6 7 -13 7 C-13.66 5.35 -14.32 3.7 -15 2 C-10.3413446 -1.10577027 -5.45635205 -0.61853384 0 0 Z " fill="#14235B" transform="translate(254,48)"/>
<path d="M0 0 C2.31 0 4.62 0 7 0 C7 1.65 7 3.3 7 5 C8.98 5 10.96 5 13 5 C13 6.98 13 8.96 13 11 C11.02 11 9.04 11 7 11 C7.33 14.3 7.66 17.6 8 21 C9.65 21.33 11.3 21.66 13 22 C13.38218767 23.65614657 13.71395102 25.32457024 14 27 C12.43081508 28.56918492 10.85914841 28.28258943 8.6875 28.375 C5.36606438 28.30095526 4.25227167 28.17228309 1.4375 26.25 C-0.76919679 21.26094639 -0.30851126 16.37323778 0 11 C-1.32 11 -2.64 11 -4 11 C-4 9.35 -4 7.7 -4 6 C-2.68 6 -1.36 6 0 6 C0 4.02 0 2.04 0 0 Z " fill="#0FB4E2" transform="translate(341,43)"/>
<path d="M0 0 C0 10.56 0 21.12 0 32 C-4.22784833 28.37613 -8.15867097 24.95773294 -12 21 C-11.505 19.515 -11.505 19.515 -11 18 C-10.34 18 -9.68 18 -9 18 C-9.63089706 12.60077365 -9.63089706 12.60077365 -10.5625 7.25 C-11 5 -11 5 -11 1 C-8 0 -8 0 0 0 Z " fill="#195796" transform="translate(61,7)"/>
<path d="M0 0 C2.31 0 4.62 0 7 0 C7 1.98 7 3.96 7 6 C8.98 6 10.96 6 13 6 C13 7.65 13 9.3 13 11 C11.02 11 9.04 11 7 11 C7.33 14.63 7.66 18.26 8 22 C9.65 22 11.3 22 13 22 C13.38218767 23.65614657 13.71395102 25.32457024 14 27 C12.43081508 28.56918492 10.85914841 28.28258943 8.6875 28.375 C5.36606438 28.30095526 4.25227167 28.17228309 1.4375 26.25 C-0.76919679 21.26094639 -0.30851126 16.37323778 0 11 C-0.99 11 -1.98 11 -3 11 C-3 9.35 -3 7.7 -3 6 C-2.01 6 -1.02 6 0 6 C0 4.02 0 2.04 0 0 Z " fill="#142463" transform="translate(222,43)"/>
<path d="M0 0 C2.31 0 4.62 0 7 0 C7 10.56 7 21.12 7 32 C4.69 32 2.38 32 0 32 C0 21.44 0 10.88 0 0 Z " fill="#152661" transform="translate(266,39)"/>
<path d="M0 0 C9.15662651 -0.48192771 9.15662651 -0.48192771 12.625 1.5 C14.56193335 5.02169699 14.85675797 8.13693951 14 12 C12.0625 15 12.0625 15 9 17 C5.87343604 17.40258432 3.17488991 17.23693208 0 17 C0 11.39 0 5.78 0 0 Z " fill="#000102" transform="translate(139,48)"/>
<path d="M0 0 C0.99 0 1.98 0 3 0 C3 0.99 3 1.98 3 3 C4.32 3.33 5.64 3.66 7 4 C7 4.99 7 5.98 7 7 C4.69 7 2.38 7 0 7 C-0.33 7.99 -0.66 8.98 -1 10 C2.3 10 5.6 10 9 10 C9.14285714 18.57142857 9.14285714 18.57142857 8 22 C5.36 22 2.72 22 0 22 C-0.33 22.99 -0.66 23.98 -1 25 C0.32 25 1.64 25 3 25 C3 25.99 3 26.98 3 28 C2.01 28.33 1.02 28.66 0 29 C-0.33 29.99 -0.66 30.98 -1 32 C-2.32 32 -3.64 32 -5 32 C-5 30.35 -5 28.7 -5 27 C-4.01 26.67 -3.02 26.34 -2 26 C-2.01047363 25.31897217 -2.02094727 24.63794434 -2.03173828 23.9362793 C-2.07328878 20.85339034 -2.09932311 17.77056029 -2.125 14.6875 C-2.14175781 13.61564453 -2.15851563 12.54378906 -2.17578125 11.43945312 C-2.18222656 10.41142578 -2.18867187 9.38339844 -2.1953125 8.32421875 C-2.20578613 7.37635498 -2.21625977 6.42849121 -2.22705078 5.4519043 C-2 3 -2 3 0 0 Z " fill="#11657A" transform="translate(80,44)"/>
<path d="M0 0 C2.64 0 5.28 0 8 0 C8 7.59 8 15.18 8 23 C5.36 23 2.72 23 0 23 C0 15.41 0 7.82 0 0 Z " fill="#142159" transform="translate(208,48)"/>
<path d="M0 0 C2.31 0 4.62 0 7 0 C7 7.59 7 15.18 7 23 C4.69 23 2.38 23 0 23 C0 15.41 0 7.82 0 0 Z " fill="#14225F" transform="translate(166,48)"/>
<path d="M0 0 C0.66 0 1.32 0 2 0 C1.93039063 0.72445313 1.86078125 1.44890625 1.7890625 2.1953125 C1.24356691 7.78705684 1.24356691 7.78705684 3.3359375 12.71484375 C4.4415016 13.61019496 5.55087073 14.50086896 6.6640625 15.38671875 C9.02907345 18.2427115 8.43021745 21.48363263 8.2109375 25.0234375 C8.14132813 25.67570312 8.07171875 26.32796875 8 27 C3.81576108 23.49102731 -0.19588166 19.91939465 -4 16 C-3.67 15.01 -3.34 14.02 -3 13 C-2.34 13 -1.68 13 -1 13 C-1.66264086 6.93735778 -1.66264086 6.93735778 -3 1 C-2.67 1.66 -2.34 2.32 -2 3 C-1.01 3 -0.02 3 1 3 C0.67 2.01 0.34 1.02 0 0 Z " fill="#1A72A5" transform="translate(53,12)"/>
<path d="M0 0 C3 0.25 3 0.25 5 2.25 C5.25 5.75 5.25 5.75 5 9.25 C3 11.25 3 11.25 0 11.5 C-3 11.25 -3 11.25 -5 9.25 C-5.25 5.75 -5.25 5.75 -5 2.25 C-3 0.25 -3 0.25 0 0 Z " fill="#010506" transform="translate(323,53.75)"/>
<path d="M0 0 C1.85772162 0.08984301 3.71247985 0.24611861 5.5625 0.4375 C7.08037109 0.59025391 7.08037109 0.59025391 8.62890625 0.74609375 C9.80259766 0.87177734 9.80259766 0.87177734 11 1 C10.67 1.66 10.34 2.32 10 3 C10.66 3.33 11.32 3.66 12 4 C12 14.89 12 25.78 12 37 C12.99 37.33 13.98 37.66 15 38 C13.02 38.495 13.02 38.495 11 39 C11 27.78 11 16.56 11 5 C7.37 5.33 3.74 5.66 0 6 C-0.33 4.35 -0.66 2.7 -1 1 C-0.67 0.67 -0.34 0.34 0 0 Z " fill="#113169" transform="translate(15,30)"/>
<path d="M0 0 C1.48831242 0.00667405 2.97660807 0.01863442 4.46484375 0.03515625 C5.22345703 0.03966797 5.98207031 0.04417969 6.76367188 0.04882812 C8.64326246 0.06064945 10.52281274 0.07858547 12.40234375 0.09765625 C12.40234375 0.75765625 12.40234375 1.41765625 12.40234375 2.09765625 C4.48234375 2.59265625 4.48234375 2.59265625 -3.59765625 3.09765625 C-3.59765625 4.08765625 -3.59765625 5.07765625 -3.59765625 6.09765625 C-5.59765625 9.09765625 -5.59765625 9.09765625 -8.97265625 9.78515625 C-12.59765625 10.09765625 -12.59765625 10.09765625 -16.59765625 10.09765625 C-15.60765625 9.76765625 -14.61765625 9.43765625 -13.59765625 9.09765625 C-13.59765625 8.43765625 -13.59765625 7.77765625 -13.59765625 7.09765625 C-14.58765625 7.09765625 -15.57765625 7.09765625 -16.59765625 7.09765625 C-16.59765625 6.43765625 -16.59765625 5.77765625 -16.59765625 5.09765625 C-14.28765625 5.42765625 -11.97765625 5.75765625 -9.59765625 6.09765625 C-9.59765625 5.43765625 -9.59765625 4.77765625 -9.59765625 4.09765625 C-7.96133733 3.04873387 -6.29279762 2.04858922 -4.59765625 1.09765625 C-3.59765625 0.09765625 -3.59765625 0.09765625 0 0 Z " fill="#1CB1DA" transform="translate(48.59765625,50.90234375)"/>
<path d="M0 0 C3 0.25 3 0.25 5 2.25 C4.625 5.875 4.625 5.875 4 9.25 C0.625 9.875 0.625 9.875 -3 10.25 C-5 8.25 -5 8.25 -5.25 5.25 C-4.90584825 1.120179 -4.129821 0.34415175 0 0 Z " fill="#030407" transform="translate(190,53.75)"/>
<path d="M0 0 C1.5631897 0.07069702 1.5631897 0.07069702 3.15795898 0.14282227 C4.28266602 0.19116211 5.40737305 0.23950195 6.56616211 0.28930664 C8.34216797 0.37341797 8.34216797 0.37341797 10.15405273 0.45922852 C11.34192383 0.51143555 12.52979492 0.56364258 13.75366211 0.61743164 C16.69986339 0.74758511 19.64576549 0.88256492 22.59155273 1.02172852 C22.59155273 1.35172852 22.59155273 1.68172852 22.59155273 2.02172852 C14.17655273 2.51672852 14.17655273 2.51672852 5.59155273 3.02172852 C5.59155273 3.35172852 5.59155273 3.68172852 5.59155273 4.02172852 C10.54155273 4.35172852 15.49155273 4.68172852 20.59155273 5.02172852 C20.26155273 6.01172852 19.93155273 7.00172852 19.59155273 8.02172852 C19.59155273 7.36172852 19.59155273 6.70172852 19.59155273 6.02172852 C18.93558105 6.06249512 18.27960937 6.10326172 17.60375977 6.14526367 C14.64189237 6.32325925 11.67936115 6.48518754 8.71655273 6.64672852 C7.68401367 6.71118164 6.65147461 6.77563477 5.58764648 6.84204102 C4.60151367 6.89360352 3.61538086 6.94516602 2.59936523 6.99829102 C1.68815918 7.05065918 0.77695313 7.10302734 -0.16186523 7.15698242 C-2.40844727 7.02172852 -2.40844727 7.02172852 -4.40844727 5.02172852 C-3.65257215 0.03295275 -3.65257215 0.03295275 0 0 Z " fill="#0F2D5A" transform="translate(8.408447265625,19.978271484375)"/>
<path d="M0 0 C0.99 0 1.98 0 3 0 C3 2.97 3 5.94 3 9 C3.66 9 4.32 9 5 9 C5 6.03 5 3.06 5 0 C5.99 0 6.98 0 8 0 C8 2.97 8 5.94 8 9 C8.66 9 9.32 9 10 9 C9.67 7.35 9.34 5.7 9 4 C10.32 4 11.64 4 13 4 C13 5.65 13 7.3 13 9 C10.35541621 10.32229189 8.32238699 10.09677194 5.375 10.0625 C4.37210937 10.05347656 3.36921875 10.04445313 2.3359375 10.03515625 C1.56507812 10.02355469 0.79421875 10.01195312 0 10 C0 6.7 0 3.4 0 0 Z " fill="#124650" transform="translate(65,35)"/>
<path d="M0 0 C-4.55326029 3.03550686 -7.69599873 3.11960817 -13.07421875 3.09765625 C-14.09996758 3.09553383 -14.09996758 3.09553383 -15.1464386 3.09336853 C-17.32683722 3.08777876 -19.50713251 3.07522822 -21.6875 3.0625 C-23.16731622 3.05748367 -24.64713406 3.052921 -26.12695312 3.04882812 C-29.75133557 3.03781271 -33.3756577 3.02055512 -37 3 C-36.67 2.34 -36.34 1.68 -36 1 C-23.98321123 0.26131705 -12.03942433 -0.13873856 0 0 Z " fill="#195398" transform="translate(42,12)"/>
<path d="M0 0 C0.66 0 1.32 0 2 0 C2 0.66 2 1.32 2 2 C2.62648437 1.97679688 3.25296875 1.95359375 3.8984375 1.9296875 C4.71570313 1.91164063 5.53296875 1.89359375 6.375 1.875 C7.18710938 1.85179688 7.99921875 1.82859375 8.8359375 1.8046875 C11 2 11 2 13 4 C12.625 6.125 12.625 6.125 12 8 C8.26562152 8.87867729 4.83225427 9.08912219 1 9 C0.67 6.03 0.34 3.06 0 0 Z " fill="#144D82" transform="translate(149,83)"/>
<path d="M0 0 C0.33 0 0.66 0 1 0 C1 16.83 1 33.66 1 51 C-2.3 51 -5.6 51 -9 51 C-9 50.67 -9 50.34 -9 50 C-6.03 50 -3.06 50 0 50 C0 49.34 0 48.68 0 48 C-2.97 47.67 -5.94 47.34 -9 47 C-9 46.67 -9 46.34 -9 46 C-6.03 46 -3.06 46 0 46 C-0.14204741 44.41632253 -0.28880153 42.83306682 -0.4375 41.25 C-0.51871094 40.36828125 -0.59992187 39.4865625 -0.68359375 38.578125 C-0.96238465 36.30649548 -1.38790577 34.20148177 -2 32 C-1.34 32 -0.68 32 0 32 C0 21.44 0 10.88 0 0 Z " fill="#10416A" transform="translate(61,7)"/>
<path d="M0 0 C1.3303125 0.495 1.3303125 0.495 2.6875 1 C5.70923347 1.91222143 7.88373706 2.18330958 11 2 C11.93423645 5.01031744 12.04449911 5.86650268 11 9 C9.35425434 9.02688151 7.70838587 9.04634123 6.0625 9.0625 C5.14597656 9.07410156 4.22945312 9.08570312 3.28515625 9.09765625 C1 9 1 9 0 8 C-0.14115161 5.32941149 -0.04247107 2.67567762 0 0 Z " fill="#050A11" transform="translate(185,83)"/>
<path d="M0 0 C0.721875 0.103125 1.44375 0.20625 2.1875 0.3125 C2.1875 0.9725 2.1875 1.6325 2.1875 2.3125 C1.35347656 2.48523437 0.51945312 2.65796875 -0.33984375 2.8359375 C-5.13321756 4.87406495 -7.83502417 8.20387784 -11.375 11.9375 C-18.97832085 19.59135598 -18.97832085 19.59135598 -23.74609375 20.30078125 C-26.90366659 20.25582129 -29.73966977 20.02282891 -32.8125 19.3125 C-32.8125 18.6525 -32.8125 17.9925 -32.8125 17.3125 C-31.92046875 17.28671875 -31.0284375 17.2609375 -30.109375 17.234375 C-28.93890625 17.17765625 -27.7684375 17.1209375 -26.5625 17.0625 C-24.82226562 16.99289063 -24.82226562 16.99289063 -23.046875 16.921875 C-19.31999412 16.21970904 -18.09268206 15.28398421 -15.8125 12.3125 C-15.709375 11.631875 -15.60625 10.95125 -15.5 10.25 C-15.1596875 9.2909375 -15.1596875 9.2909375 -14.8125 8.3125 C-13.10836901 7.55874975 -11.3975402 6.81440252 -9.6484375 6.171875 C-7.48149328 5.28875099 -7.48149328 5.28875099 -5.1875 2.625 C-2.8125 0.3125 -2.8125 0.3125 0 0 Z " fill="#1CA2CA" transform="translate(58.8125,59.6875)"/>
<path d="M0 0 C2.375 0.1875 2.375 0.1875 5 1 C5.226875 1.6909375 5.45375 2.381875 5.6875 3.09375 C7.6701222 7.48384201 11.07690667 10.13427249 14.625 13.3125 C15.33140625 13.95767578 16.0378125 14.60285156 16.765625 15.26757812 C18.50357961 16.85287456 20.2483491 18.42987227 22 20 C21.67 20.66 21.34 21.32 21 22 C16.75978093 18.39130292 12.70558904 14.73254287 8.875 10.6875 C5.81601462 7.56201494 3.39618345 5.87923669 -1 5 C-0.67 3.35 -0.34 1.7 0 0 Z " fill="#25B5D6" transform="translate(39,23)"/>
<path d="M0 0 C5.5674727 -0.56810946 10.6420251 0.63924447 16 2 C16 2.66 16 3.32 16 4 C13.03 4 10.06 4 7 4 C6.34 5.32 5.68 6.64 5 8 C3.625 9.8125 3.625 9.8125 2 11 C-0.1875 10.6875 -0.1875 10.6875 -2 10 C-2 9.34 -2 8.68 -2 8 C-1.21625 7.87625 -0.4325 7.7525 0.375 7.625 C3.14057822 7.20882007 3.14057822 7.20882007 5 5 C2.69 4.34 0.38 3.68 -2 3 C-1.34 2.01 -0.68 1.02 0 0 Z " fill="#174683" transform="translate(45,53)"/>
<path d="M0 0 C3.63 0 7.26 0 11 0 C11.33 1.65 11.66 3.3 12 5 C11 6 11 6 8.49609375 6.09765625 C6.98208984 6.08025391 6.98208984 6.08025391 5.4375 6.0625 C4.42558594 6.05347656 3.41367187 6.04445313 2.37109375 6.03515625 C1.58863281 6.02355469 0.80617188 6.01195313 0 6 C0 4.02 0 2.04 0 0 Z " fill="#020404" transform="translate(287,59)"/>
<path d="M0 0 C0.99 0.33 1.98 0.66 3 1 C4.69867188 1.14777936 6.40177489 1.24747066 8.10546875 1.31640625 C9.57983398 1.37924805 9.57983398 1.37924805 11.08398438 1.44335938 C12.62022461 1.50233398 12.62022461 1.50233398 14.1875 1.5625 C15.22326172 1.60568359 16.25902344 1.64886719 17.32617188 1.69335938 C19.8839819 1.79944366 22.44188845 1.90150146 25 2 C25 2.33 25 2.66 25 3 C15.595 3.495 15.595 3.495 6 4 C11.61 4.33 17.22 4.66 23 5 C23 5.33 23 5.66 23 6 C15.41 6.33 7.82 6.66 0 7 C0 4.69 0 2.38 0 0 Z " fill="#15407B" transform="translate(0,10)"/>
<path d="M0 0 C0.66 0 1.32 0 2 0 C2 1.65 2 3.3 2 5 C1.34 5 0.68 5 0 5 C0 6.98 0 8.96 0 11 C-2.64 11 -5.28 11 -8 11 C-7.01 10.67 -6.02 10.34 -5 10 C-5 9.34 -5 8.68 -5 8 C-6.32 7.67 -7.64 7.34 -9 7 C-8.34 5.68 -7.68 4.36 -7 3 C-6.21625 3.061875 -5.4325 3.12375 -4.625 3.1875 C-3.75875 3.125625 -2.8925 3.06375 -2 3 C-1.34 2.01 -0.68 1.02 0 0 Z " fill="#103856" transform="translate(311,81)"/>
<path d="M0 0 C0.99 0 1.98 0 3 0 C3 0.66 3 1.32 3 2 C-0.46153846 5 -0.46153846 5 -3 5 C-3.33 5.99 -3.66 6.98 -4 8 C-6 8.66666667 -8 9.33333333 -10 10 C-13.25269486 12.62022641 -14.68573326 15.05719978 -16 19 C-16.66 18.67 -17.32 18.34 -18 18 C-17.34 17.01 -16.68 16.02 -16 15 C-16.99 15 -17.98 15 -19 15 C-19.33 15.99 -19.66 16.98 -20 18 C-19.8125 15.625 -19.8125 15.625 -19 13 C-17.35008418 12.29289322 -15.6792238 11.63437344 -14 11 C-12.47134176 9.6173179 -12.47134176 9.6173179 -11 8 C-8.51128943 5.3577443 -6.45276512 4.21313369 -3 3 C-2.46375 2.46375 -1.9275 1.9275 -1.375 1.375 C-0.92125 0.92125 -0.4675 0.4675 0 0 Z " fill="#1AA3CE" transform="translate(58,75)"/>
<path d="M0 0 C1.45792884 -0.05399736 2.91642712 -0.09279177 4.375 -0.125 C5.18710937 -0.14820313 5.99921875 -0.17140625 6.8359375 -0.1953125 C9 0 9 0 11 2 C10.67 3.32 10.34 4.64 10 6 C6.7 6 3.4 6 0 6 C0 4.02 0 2.04 0 0 Z " fill="#04090A" transform="translate(287,47)"/>
<path d="M0 0 C3.3 0 6.6 0 10 0 C10 2.31 10 4.62 10 7 C7.03 7 4.06 7 1 7 C0.67 4.69 0.34 2.38 0 0 Z " fill="#197A8F" transform="translate(79,54)"/>
<path d="M0 0 C0.33 0.99 0.66 1.98 1 3 C-0.485 3.86625 -0.485 3.86625 -2 4.75 C-4.52800988 6.78546336 -4.96341584 7.72418416 -5.3984375 11.00390625 C-5.37705855 14.02190191 -5.25893136 16.99351923 -5 20 C-5.99 20 -6.98 20 -8 20 C-8 20.66 -8 21.32 -8 22 C-7.01 22 -6.02 22 -5 22 C-5 22.66 -5 23.32 -5 24 C-6.65 23.67 -8.3 23.34 -10 23 C-9.23430804 8.29871439 -9.23430804 8.29871439 -3.875 3.0625 C-2.6131802 2.00499621 -1.33106959 0.96889484 0 0 Z " fill="#1696C3" transform="translate(60,81)"/>
<path d="M0 0 C4.55555556 0.55555556 4.55555556 0.55555556 6 2 C6.125 4.5 6.125 4.5 6 7 C5 8 5 8 2 8.125 C-1 8 -1 8 -2 7 C-2.1875 4.5625 -2.1875 4.5625 -2 2 C-1.34 1.34 -0.68 0.68 0 0 Z " fill="#14255F" transform="translate(210,37)"/>
<path d="M0 0 C4.55555556 0.55555556 4.55555556 0.55555556 6 2 C6.125 4.5 6.125 4.5 6 7 C5 8 5 8 2 8.125 C-1 8 -1 8 -2 7 C-2.1875 4.5625 -2.1875 4.5625 -2 2 C-1.34 1.34 -0.68 0.68 0 0 Z " fill="#142564" transform="translate(167,37)"/>
<path d="M0 0 C0.66 0 1.32 0 2 0 C1.93039063 0.72445313 1.86078125 1.44890625 1.7890625 2.1953125 C1.33380718 7.89908537 1.33380718 7.89908537 3.3359375 13.06640625 C5.14553973 14.89163954 5.14553973 14.89163954 8 17 C7.67 17.99 7.34 18.98 7 20 C5.33333333 18.33333333 3.66666667 16.66666667 2 15 C1.4225 14.54625 0.845 14.0925 0.25 13.625 C-1.74893262 11.0263876 -1.66338063 8.19788402 -2 5 C-2.30903983 3.66082739 -2.62942911 2.32346746 -3 1 C-2.67 1.66 -2.34 2.32 -2 3 C-1.01 3 -0.02 3 1 3 C0.67 2.01 0.34 1.02 0 0 Z " fill="#20B7D9" transform="translate(53,12)"/>
<path d="M0 0 C0.66 0 1.32 0 2 0 C2.99 3.3 3.98 6.6 5 10 C3.88625 9.814375 2.7725 9.62875 1.625 9.4375 C-1.82568861 8.68319343 -1.82568861 8.68319343 -4 10 C-3.43697042 6.05879291 -2.3208055 3.2491277 0 0 Z " fill="#114D7F" transform="translate(134,82)"/>
<path d="M0 0 C2.5 0.125 2.5 0.125 3.5 1.125 C3.625 3.625 3.625 3.625 3.5 6.125 C2.5 7.125 2.5 7.125 0 7.25 C-2.5 7.125 -2.5 7.125 -3.5 6.125 C-3.625 3.625 -3.625 3.625 -3.5 1.125 C-2.5 0.125 -2.5 0.125 0 0 Z " fill="#0F3556" transform="translate(231.5,84.875)"/>
<path d="M0 0 C1.8125 0.0625 1.8125 0.0625 4 1 C8 6.11111111 8 6.11111111 8 10 C7.46375 9.54625 6.9275 9.0925 6.375 8.625 C3.68301698 6.78311688 1.11479612 5.92028067 -2 5 C-1.125 1.125 -1.125 1.125 0 0 Z " fill="#1F9FC8" transform="translate(40,39)"/>
<path d="M0 0 C1.2065625 0.0309375 1.2065625 0.0309375 2.4375 0.0625 C3.0625 2.4375 3.0625 2.4375 3.4375 5.0625 C2.7775 5.7225 2.1175 6.3825 1.4375 7.0625 C-1.1875 6.6875 -1.1875 6.6875 -3.5625 6.0625 C-3.605221 4.39638095 -3.60313832 2.72867115 -3.5625 1.0625 C-2.5625 0.0625 -2.5625 0.0625 0 0 Z " fill="#115181" transform="translate(317.5625,84.9375)"/>
<path d="M0 0 C0.33 0.99 0.66 1.98 1 3 C3.97 3 6.94 3 10 3 C9.67 4.65 9.34 6.3 9 8 C6.36 8 3.72 8 1 8 C0.67 5.36 0.34 2.72 0 0 Z " fill="#104E5D" transform="translate(79,58)"/>
<path d="M0 0 C1.2065625 0.0309375 1.2065625 0.0309375 2.4375 0.0625 C3.37173645 3.07281744 3.48199911 3.92900268 2.4375 7.0625 C0.77138095 7.105221 -0.89632885 7.10313832 -2.5625 7.0625 C-3.5625 6.0625 -3.5625 6.0625 -3.6875 3.5625 C-3.51717518 0.15600356 -3.41884482 0.08338646 0 0 Z " fill="#13426A" transform="translate(260.5625,84.9375)"/>
<path d="M0 0 C1.98 0 3.96 0 6 0 C6 1.32 6 2.64 6 4 C5.34 4.66 4.68 5.32 4 6 C1.375 5.625 1.375 5.625 -1 5 C-0.67 3.35 -0.34 1.7 0 0 Z " fill="#040811" transform="translate(246,61)"/>
<path d="M0 0 C1.2065625 0.0309375 1.2065625 0.0309375 2.4375 0.0625 C3.37173645 3.07281744 3.48199911 3.92900268 2.4375 7.0625 C0.7875 6.7325 -0.8625 6.4025 -2.5625 6.0625 C-2.94468767 4.40635343 -3.27645102 2.73792976 -3.5625 1.0625 C-2.5625 0.0625 -2.5625 0.0625 0 0 Z " fill="#164571" transform="translate(193.5625,84.9375)"/>
<path d="M0 0 C0 0.99 0 1.98 0 3 C-0.99 3.33 -1.98 3.66 -3 4 C-3.33 4.99 -3.66 5.98 -4 7 C-5.32 7 -6.64 7 -8 7 C-8.1875 4.625 -8.1875 4.625 -8 2 C-4.77208445 -0.1519437 -3.71599191 -0.20086443 0 0 Z " fill="#13596C" transform="translate(83,69)"/>
<path d="M0 0 C1.67542976 0.28604898 3.34385343 0.61781233 5 1 C5.66 2.98 6.32 4.96 7 7 C4.69 6.67 2.38 6.34 0 6 C-0.38218767 4.34385343 -0.71395102 2.67542976 -1 1 C-0.67 0.67 -0.34 0.34 0 0 Z " fill="#22A6D0" transform="translate(39,23)"/>
<path d="M0 0 C1.66611905 -0.042721 3.33382885 -0.04063832 5 0 C6 1 6 1 6.0625 4.0625 C6.041875 5.031875 6.02125 6.00125 6 7 C4.02 7 2.04 7 0 7 C0 5.68 0 4.36 0 3 C1.32 3 2.64 3 4 3 C4 2.34 4 1.68 4 1 C2.68 0.67 1.36 0.34 0 0 Z " fill="#144774" transform="translate(244,85)"/>
<path d="M0 0 C0.66 0 1.32 0 2 0 C2 0.66 2 1.32 2 2 C2.99 2 3.98 2 5 2 C5.33 3.98 5.66 5.96 6 8 C4.35 8.33 2.7 8.66 1 9 C0.67 6.03 0.34 3.06 0 0 Z " fill="#0F2D47" transform="translate(149,83)"/>
<path d="M0 0 C1.66611905 -0.042721 3.33382885 -0.04063832 5 0 C6 1 6 1 6.0625 4.0625 C6.041875 5.031875 6.02125 6.00125 6 7 C4.02 7 2.04 7 0 7 C0 5.68 0 4.36 0 3 C1.32 3 2.64 3 4 3 C4 2.34 4 1.68 4 1 C2.68 0.67 1.36 0.34 0 0 Z " fill="#194974" transform="translate(177,85)"/>
<path d="M0 0 C1.66611905 -0.042721 3.33382885 -0.04063832 5 0 C6 1 6 1 6.0625 4.0625 C6.041875 5.031875 6.02125 6.00125 6 7 C4.02 7 2.04 7 0 7 C0 5.68 0 4.36 0 3 C1.32 3 2.64 3 4 3 C4 2.34 4 1.68 4 1 C2.68 0.67 1.36 0.34 0 0 Z " fill="#134872" transform="translate(286,85)"/>
<path d="M0 0 C3.96 0 7.92 0 12 0 C12 0.33 12 0.66 12 1 C9.03 1 6.06 1 3 1 C2.34 2.32 1.68 3.64 1 5 C-0.375 6.8125 -0.375 6.8125 -2 8 C-4.1875 7.6875 -4.1875 7.6875 -6 7 C-6 6.34 -6 5.68 -6 5 C-5.21625 4.87625 -4.4325 4.7525 -3.625 4.625 C-0.85942178 4.20882007 -0.85942178 4.20882007 1 2 C0.67 1.34 0.34 0.68 0 0 Z " fill="#1AAED1" transform="translate(49,56)"/>
<path d="M0 0 C1.32 0.33 2.64 0.66 4 1 C3.50886719 1.76570313 3.50886719 1.76570313 3.0078125 2.546875 C1.64351616 5.86772037 1.8087727 8.67372568 1.875 12.25 C1.89304687 13.51328125 1.91109375 14.7765625 1.9296875 16.078125 C1.95289062 17.04234375 1.97609375 18.0065625 2 19 C1.34 19 0.68 19 0 19 C0 12.73 0 6.46 0 0 Z " fill="#11478E" transform="translate(65,90)"/>
<path d="M0 0 C2.31 0 4.62 0 7 0 C7 1.32 7 2.64 7 4 C4.69 4 2.38 4 0 4 C0 2.68 0 1.36 0 0 Z " fill="#189ED5" transform="translate(26,69)"/>
<path d="M0 0 C0.33 0.66 0.66 1.32 1 2 C3.31 2 5.62 2 8 2 C8 2.66 8 3.32 8 4 C8.66 4.33 9.32 4.66 10 5 C6.7 5 3.4 5 0 5 C0 3.35 0 1.7 0 0 Z " fill="#08171C" transform="translate(79,49)"/>
<path d="M0 0 C0.99 0 1.98 0 3 0 C3 2.97 3 5.94 3 9 C2.01 9 1.02 9 0 9 C0 6.03 0 3.06 0 0 Z " fill="#188AAA" transform="translate(65,73)"/>
<path d="M0 0 C2.02045442 0.60183749 4.02111039 1.27306096 6 2 C6.33 2.66 6.66 3.32 7 4 C6.0925 3.7525 5.185 3.505 4.25 3.25 C3.1775 3.1675 2.105 3.085 1 3 C-0.37310707 4.29233607 -1.71034824 5.62437146 -3 7 C-5.25 6.75 -5.25 6.75 -7 6 C-6.01 6 -5.02 6 -4 6 C-3.71125 5.38125 -3.4225 4.7625 -3.125 4.125 C-2 2 -2 2 0 0 Z " fill="#11BEDB" transform="translate(84,11)"/>
<path d="M0 0 C2.97 0.495 2.97 0.495 6 1 C4.68 2.65 3.36 4.3 2 6 C1.01 5.67 0.02 5.34 -1 5 C-0.67 3.35 -0.34 1.7 0 0 Z " fill="#163772" transform="translate(45,56)"/>
<path d="M0 0 C0.66 0.33 1.32 0.66 2 1 C1.67 3.31 1.34 5.62 1 8 C0.01 8 -0.98 8 -2 8 C-2.33 5.69 -2.66 3.38 -3 1 C-2.01 0.67 -1.02 0.34 0 0 Z " fill="#1974AB" transform="translate(53,7)"/>
<path d="M0 0 C2.97 0.495 2.97 0.495 6 1 C6 1.33 6 1.66 6 2 C7.65 2.33 9.3 2.66 11 3 C11 3.33 11 3.66 11 4 C7.26513121 4.5745952 3.78706732 5 0 5 C0.99 4.67 1.98 4.34 3 4 C3 3.34 3 2.68 3 2 C2.01 2 1.02 2 0 2 C0 1.34 0 0.68 0 0 Z " fill="#1FA0D3" transform="translate(32,56)"/>
<path d="M0 0 C0.515625 0.309375 1.03125 0.61875 1.5625 0.9375 C4.66665423 2.29059287 7.65115007 2.61359424 11 3 C11 3.66 11 4.32 11 5 C8.36 5 5.72 5 3 5 C3 4.34 3 3.68 3 3 C2.01 2.67 1.02 2.34 0 2 C0 1.34 0 0.68 0 0 Z " fill="#24A9D3" transform="translate(50,43)"/>
<path d="M0 0 C0.99 0 1.98 0 3 0 C3 2.64 3 5.28 3 8 C2.01 8 1.02 8 0 8 C0 5.36 0 2.72 0 0 Z " fill="#15A8C0" transform="translate(65,35)"/>
<path d="M0 0 C0.99 0 1.98 0 3 0 C3 2.64 3 5.28 3 8 C2.01 8 1.02 8 0 8 C0 5.36 0 2.72 0 0 Z " fill="#1DA7C2" transform="translate(70,35)"/>
<path d="M0 0 C0.99 0.99 1.98 1.98 3 3 C3.66 2.01 4.32 1.02 5 0 C5.66 0.33 6.32 0.66 7 1 C6.01 2.98 5.02 4.96 4 7 C3.34 7 2.68 7 2 7 C1.34 4.69 0.68 2.38 0 0 Z " fill="#194D7F" transform="translate(236,85)"/>
<path d="M0 0 C0.99 0.33 1.98 0.66 3 1 C2.67 3.31 2.34 5.62 2 8 C2.66 8.33 3.32 8.66 4 9 C2.68 8.67 1.36 8.34 0 8 C-0.38063221 5.6739143 -0.71269945 3.33944736 -1 1 C-0.67 0.67 -0.34 0.34 0 0 Z " fill="#184C7C" transform="translate(252,83)"/>
<path d="M0 0 C0.66 0 1.32 0 2 0 C2 1.65 2 3.3 2 5 C1.34 5 0.68 5 0 5 C0 6.98 0 8.96 0 11 C-0.33 11 -0.66 11 -1 11 C-2.25 3.375 -2.25 3.375 0 0 Z " fill="#155D8E" transform="translate(311,81)"/>
<path d="M0 0 C0.66 0 1.32 0 2 0 C3.09658936 3.28976808 2.79953138 4.71303767 2 8 C2.66 8.33 3.32 8.66 4 9 C2.68 8.67 1.36 8.34 0 8 C0 5.36 0 2.72 0 0 Z " fill="#1A4C7C" transform="translate(185,83)"/>
<path d="M0 0 C0.78375 0.04125 1.5675 0.0825 2.375 0.125 C2.375 3.095 2.375 6.065 2.375 9.125 C1.715 8.795 1.055 8.465 0.375 8.125 C0.705 5.815 1.035 3.505 1.375 1.125 C0.385 1.785 -0.605 2.445 -1.625 3.125 C-2.615 2.795 -3.605 2.465 -4.625 2.125 C-2.625 0.125 -2.625 0.125 0 0 Z " fill="#153978" transform="translate(58.625,61.875)"/>
<path d="M0 0 C0 3.5747073 -0.55352838 4.46916729 -3 7 C-5.6875 7.75 -5.6875 7.75 -8 8 C-5.33333333 5.33333333 -2.66666667 2.66666667 0 0 Z " fill="#0B679E" transform="translate(88,79)"/>
<path d="M0 0 C1.32 0.33 2.64 0.66 4 1 C3.67 2.32 3.34 3.64 3 5 C2.01 4.67 1.02 4.34 0 4 C0 2.68 0 1.36 0 0 Z " fill="#06090E" transform="translate(156,86)"/>
<path d="M0 0 C1.32 0.33 2.64 0.66 4 1 C3.34 2.98 2.68 4.96 2 7 C1.34 7 0.68 7 0 7 C0 4.69 0 2.38 0 0 Z " fill="#10446A" transform="translate(322,85)"/>
<path d="M0 0 C0.99 0 1.98 0 3 0 C2.67 1.65 2.34 3.3 2 5 C1.01 4.67 0.02 4.34 -1 4 C-0.67 2.68 -0.34 1.36 0 0 Z " fill="#04090D" transform="translate(316,86)"/>
<path d="M0 0 C0.66 0 1.32 0 2 0 C2.66 1.98 3.32 3.96 4 6 C2.35 6 0.7 6 -1 6 C-0.67 4.02 -0.34 2.04 0 0 Z " fill="#0D2B45" transform="translate(134,82)"/>
<path d="M0 0 C2.31 0 4.62 0 7 0 C7 0.66 7 1.32 7 2 C5.02 2.33 3.04 2.66 1 3 C0.67 2.01 0.34 1.02 0 0 Z " fill="#132A65" transform="translate(54,73)"/>
<path d="M0 0 C1.98 0 3.96 0 6 0 C5.67 0.99 5.34 1.98 5 3 C3.35 3 1.7 3 0 3 C0 2.01 0 1.02 0 0 Z " fill="#1A5297" transform="translate(21,22)"/>
</svg>
